<svg xmlns="http://www.w3.org/2000/svg" viewBox="0 0 187.04 172.29"><defs><style>.cls-1{fill:#f2c335;}.cls-2{fill:#fff;}</style></defs><title>logoJauneC</title><g id="Calque_2" data-name="Calque 2"><g id="Calque_1-2" data-name="Calque 1"><rect class="cls-1" width="187.04" height="172.29" rx="12"/><path class="cls-2" d="M91.44,103.25l0,5.19a1,1,0,0,0,0,.17,14,14,0,0,1-3.18,10.78c-1.25,1-2.48,3.48-2.88,4.35a1.35,1.35,0,0,0-.12.62l2.12,32.21.72.06L89,134.06l1.55.06.59,22.45h1.23l.58-22.39h1.3L95,156.51l1.23-.06L96.56,134l1.76.12.9,22.45h1l1.88-30.48s.32-4-3.7-8-3-7.24-3-10.38c0-.59,0-1.81.09-3.39a1.45,1.45,0,0,0-1.49-1.44h-.78A3.64,3.64,0,0,0,91.44,103.25Z"/><path class="cls-2" d="M94.66,65.35a1.42,1.42,0,0,0,1.53-1.27c.09-2.91.07-5.84,0-8.34Q96,48.66,96.13,42a81.6,81.6,0,0,1,1.14-12.38,74.82,74.82,0,0,1,7.66-.66q4.88-.22,10.38-.33t11.08-.33q5.56-.22,9.93-.78A24.68,24.68,0,0,0,143,26q2.34-1,1.58-2.93a18.94,18.94,0,0,0-2.28-.16l-2-.06q-21.53.66-41.9.66a1.77,1.77,0,0,1-1.26-.88c-.34-.51-.72-1.09-1.14-1.71a9,9,0,0,0-1.58-1.77,4.35,4.35,0,0,0-2.6-.94,2.69,2.69,0,0,0-2,.61,6.91,6.91,0,0,0-1.52,1.71,10.31,10.31,0,0,0-1,2.05,14.29,14.29,0,0,0-.5,1.6l-38.1,2A3.38,3.38,0,0,0,46,27.23a4,4,0,0,0-1.39,2.43c-.17,1.25.23,2,1.2,2.32a12.9,12.9,0,0,0,2.85.55,58.11,58.11,0,0,0,9.87-.16q4.93-.49,9.81-1t9.81-.94a51.68,51.68,0,0,1,9.87.17c.43,3.6.7,7.75.83,12.42s.23,9.64.31,14.87c0,2.06.17,4.19.36,6.33a1.46,1.46,0,0,0,1.6,1.2"/><path class="cls-2" d="M79.74,71.29c-.1,0-.25.24-.46.85s-.47,1.41-.78,2.38-.67,2.08-1,3.3-.78,2.44-1.21,3.64-.86,2.32-1.3,3.36a13.76,13.76,0,0,1-1.29,2.49,2.1,2.1,0,0,1-1.21,1c-.38.06-.72-.3-1-1.07A17.37,17.37,0,0,1,70.1,85q-.73-1.42-1.56-3.09c-.54-1.11-1.12-2.26-1.71-3.45s-1.2-2.29-1.81-3.31a28.67,28.67,0,0,0-1.79-2.67,5.86,5.86,0,0,0-1.68-1.58,56.41,56.41,0,0,0,.33,5.81c.22,2.11.45,4.24.71,6.41s.49,4.3.71,6.41a56.36,56.36,0,0,1,.33,5.84.71.71,0,0,1,0,.68,1.06,1.06,0,0,1-1.26.58,1.46,1.46,0,0,1-.81-.61q-.51-3.41-.73-6.94c-.14-2.35-.29-4.72-.43-7.1s-.33-4.75-.53-7.11-.52-4.68-.94-7c0-.45.06-.73.26-.85a1.46,1.46,0,0,1,.73-.17,7.3,7.3,0,0,1,3,1.62,14.9,14.9,0,0,1,2.39,2.75,26.06,26.06,0,0,1,2,3.45L69,78.42c.58,1.23,1.17,2.41,1.75,3.53a14.88,14.88,0,0,0,1.94,2.91.41.41,0,0,0,.27-.12,2.54,2.54,0,0,0,.35-.65c.14-.35.35-.89.62-1.61s.62-1.74,1.08-3l1.69-4.88c.69-2,1.51-4.34,2.49-7.15a.7.7,0,0,1,.36-.36,1.4,1.4,0,0,1,.64-.15,1,1,0,0,1,.64.22,1.18,1.18,0,0,1,.4.76c.25,2.09.47,4.29.68,6.62s.43,4.69.68,7.12.52,4.88.84,7.36.7,4.92,1.16,7.32a.81.81,0,0,1-.95.82,2.57,2.57,0,0,1-.78-.22,4.79,4.79,0,0,1-.79-.46Z"/><path class="cls-2" d="M86.13,68.61a.6.6,0,0,1,.33-.6,1.73,1.73,0,0,1,.73-.15c.54,0,.87.17,1,.49a3.09,3.09,0,0,1,.2,1.14,1.27,1.27,0,0,1-.59.58,1.08,1.08,0,0,1-.75.07,1.2,1.2,0,0,1-.65-.48A1.7,1.7,0,0,1,86.13,68.61Zm.44,6.93a4.35,4.35,0,0,1,.51-.17,2.91,2.91,0,0,1,.57-.06,1.39,1.39,0,0,1,.53.1.79.79,0,0,1,.4.37c0,1.47,0,3.07,0,4.78s.09,3.44.15,5.2.12,3.48.16,5.18.1,3.28.15,4.73a.87.87,0,0,1-.29.78,1.11,1.11,0,0,1-.71.27,1.15,1.15,0,0,1-.72-.25,1,1,0,0,1-.32-.8Z"/><path class="cls-2" d="M103.34,96.08a3.88,3.88,0,0,1-.64-1.87,23.31,23.31,0,0,1-.15-2.43q0-1.27,0-2.52a8.25,8.25,0,0,0-.2-2.12,32,32,0,0,1-3.23,5.45,12.75,12.75,0,0,1-2.78,2.79,3.75,3.75,0,0,1-2.28.75,3.13,3.13,0,0,1-1.74-.68A4.33,4.33,0,0,1,91.21,94a4.52,4.52,0,0,1-.44-1.65,9.7,9.7,0,0,1,0-3.11,22.62,22.62,0,0,1,.84-3.76,24.68,24.68,0,0,1,1.54-3.79,14.66,14.66,0,0,1,2.12-3.21,8.26,8.26,0,0,1,2.53-2,3.77,3.77,0,0,1,2.82-.22,4.27,4.27,0,0,1,1.22,0,1.56,1.56,0,0,1,.82.5,2.3,2.3,0,0,1,.48,1,12.11,12.11,0,0,1,.22,1.69,41.19,41.19,0,0,0,.2,5.61c.18,1.54.39,2.9.64,4.08s.48,2.24.71,3.19a15.88,15.88,0,0,1,.42,3,1.13,1.13,0,0,1-.29.83,1.37,1.37,0,0,1-.66.37,1,1,0,0,1-.68,0A.5.5,0,0,1,103.34,96.08Zm-2.12-17.17a2,2,0,0,0-1.9-.92,3.86,3.86,0,0,0-2,1.17,12.35,12.35,0,0,0-1.92,2.62,22.55,22.55,0,0,0-1.57,3.45,20.82,20.82,0,0,0-1,3.66,10.81,10.81,0,0,0-.13,3.21c.34,1,.75,1.63,1.24,1.83a1.63,1.63,0,0,0,1.57-.22A6.88,6.88,0,0,0,97.24,92a28.61,28.61,0,0,0,1.68-2.5c.53-.89,1-1.79,1.44-2.68s.77-1.65,1-2.26Z"/><path class="cls-2" d="M127.56,71.29c-.1,0-.25.24-.46.85s-.47,1.41-.79,2.38-.66,2.08-1,3.3-.78,2.44-1.2,3.64-.86,2.32-1.3,3.36a13.72,13.72,0,0,1-1.3,2.49,2.06,2.06,0,0,1-1.2,1c-.38.06-.73-.3-1-1.07A18.48,18.48,0,0,1,117.91,85c-.48-.95-1-2-1.55-3.09s-1.12-2.26-1.72-3.45-1.2-2.29-1.81-3.31A25.2,25.2,0,0,0,111,72.47a5.62,5.62,0,0,0-1.68-1.58,56.41,56.41,0,0,0,.33,5.81c.22,2.11.46,4.24.72,6.41s.49,4.3.71,6.41a56.36,56.36,0,0,1,.33,5.84.71.71,0,0,1,0,.68,1,1,0,0,1-.49.51,1.1,1.1,0,0,1-.77.07,1.41,1.41,0,0,1-.8-.61q-.51-3.41-.73-6.94c-.15-2.35-.29-4.72-.44-7.1s-.32-4.75-.53-7.11-.52-4.68-.93-7c0-.45.06-.73.26-.85a1.43,1.43,0,0,1,.73-.17,7.37,7.37,0,0,1,3,1.62,15.29,15.29,0,0,1,2.39,2.75,27.22,27.22,0,0,1,2,3.45c.6,1.25,1.19,2.49,1.77,3.73S118,80.83,118.61,82a15.32,15.32,0,0,0,1.93,2.91.41.41,0,0,0,.28-.12,2.32,2.32,0,0,0,.34-.65c.15-.35.36-.89.62-1.61s.63-1.74,1.08-3,1-2.91,1.7-4.88,1.51-4.34,2.48-7.15a.68.68,0,0,1,.37-.36,1.37,1.37,0,0,1,.64-.15,1,1,0,0,1,.64.22,1.23,1.23,0,0,1,.4.76c.24,2.09.47,4.29.68,6.62s.43,4.69.67,7.12.52,4.88.84,7.36.71,4.92,1.17,7.32a1,1,0,0,1-.33.67.92.92,0,0,1-.62.15,2.57,2.57,0,0,1-.78-.22,4.41,4.41,0,0,1-.79-.46Z"/></g></g></svg>